<?xml version="1.0" standalone="no"?>
<!DOCTYPE svg PUBLIC "-//W3C//DTD SVG 20010904//EN"
 "http://www.w3.org/TR/2001/REC-SVG-20010904/DTD/svg10.dtd">
<svg version="1.0" xmlns="http://www.w3.org/2000/svg"
 width="1000.000000pt" height="1000.000000pt" viewBox="0 0 1000.000000 1000.000000"
 preserveAspectRatio="xMidYMid meet">
<metadata>
Created by potrace 1.14, written by Peter Selinger 2001-2017
</metadata>
<g transform="translate(0.000000,1000.000000) scale(0.100000,-0.100000)"
fill="#000000" stroke="none">
<path d="M3642 6824 l0 -824 1441 2 1440 3 0 683 0 682 344 0 c188 0 344 3
344 8 4 20 5 249 1 258 -2 9 -460 12 -1787 12 l-1783 0 0 -824z"/>
<path d="M1988 7502 c-29 -3 -58 -35 -58 -63 0 -9 8 -26 18 -38 19 -24 -48
-23 940 -21 428 0 443 1 462 20 25 25 25 51 2 80 l-18 22 -660 2 c-362 0 -671
0 -686 -2z"/>
<path d="M6747 7273 c-2 -5 -3 -322 -3 -705 l1 -698 -1225 -2 c-1200 -3 -1224
-3 -1188 -22 90 -44 171 -141 202 -240 l18 -56 616 -1 c1264 -1 1576 1 1582 8
3 5 17 33 30 63 60 137 178 248 299 280 51 13 161 16 211 5 143 -31 280 -166
334 -327 4 -14 17 -18 63 -19 68 0 352 0 371 0 10 1 12 23 10 93 l-3 93 -33 1
c-18 1 -34 3 -37 5 -2 2 -5 121 -7 263 l-3 259 -153 73 c-152 72 -185 92 -204
127 -9 18 -56 172 -64 210 -1 10 -21 73 -43 140 -22 68 -46 150 -55 182 -25
98 -27 111 -35 263 -1 9 -76 12 -340 12 -187 0 -342 -3 -344 -7z m546 -322
l103 -1 16 -57 c8 -32 39 -139 67 -238 29 -99 55 -188 57 -197 5 -17 -11 -18
-240 -18 l-246 0 -1 83 c-1 148 -1 241 0 334 1 103 -3 100 94 96 26 0 93 -2
150 -2z"/>
<path d="M1950 7058 c-11 -12 -20 -27 -20 -32 1 -30 14 -56 34 -63 11 -4 323
-7 691 -8 l670 0 23 22 c22 22 28 49 14 69 -21 33 -49 34 -721 34 l-670 0 -21
-22z"/>
<path d="M1967 6647 c-23 -7 -36 -32 -37 -64 0 -7 10 -21 22 -33 21 -20 31
-20 689 -20 393 0 678 4 692 9 37 14 46 66 18 95 l-21 21 -670 0 c-368 0 -680
-3 -693 -8z"/>
<path d="M1950 6210 c-25 -25 -25 -51 -2 -79 l17 -22 685 0 685 0 18 22 c22
28 22 54 -3 79 -20 20 -33 20 -700 20 -667 0 -680 0 -700 -20z"/>
<path d="M3650 5710 l0 -160 29 0 c25 0 30 5 42 47 27 98 111 203 195 243 24
12 44 24 44 26 0 2 -70 4 -155 4 l-155 0 0 -160z"/>
<path d="M4055 5860 c-126 -21 -253 -134 -294 -262 -29 -88 -17 -210 28 -297
48 -92 162 -176 266 -196 241 -44 461 139 457 380 -2 76 -6 94 -35 159 -72
158 -245 246 -422 216z m144 -288 c56 -41 56 -129 0 -176 -89 -75 -219 22
-174 129 28 68 115 92 174 47z"/>
<path d="M7090 5854 c-30 -8 -76 -28 -102 -45 -212 -136 -245 -427 -67 -600
129 -125 322 -145 480 -48 160 99 220 319 133 491 -83 164 -268 248 -444 202z
m145 -268 c112 -47 77 -216 -45 -216 -120 0 -157 167 -47 215 41 18 50 18 92
1z"/>
<path d="M55 4792 c-59 -24 -58 -75 3 -92 26 -8 1505 -10 4963 -8 4829 3 4927
3 4948 22 30 27 26 53 -11 72 -31 16 -358 17 -4951 18 -4064 1 -4925 -1 -4952
-12z"/>
<path d="M1768 4395 c-2 -2 -19 -5 -38 -8 -200 -31 -346 -140 -430 -319 -52
-112 -75 -283 -56 -418 44 -298 254 -491 544 -499 145 -4 281 43 374 128 l50
46 -42 45 c-22 25 -60 66 -82 93 -23 26 -46 47 -50 47 -5 0 -26 -13 -46 -30
-108 -86 -257 -71 -350 34 -51 58 -74 136 -75 251 -1 117 17 186 68 256 78
108 235 132 342 53 17 -13 36 -24 41 -24 5 0 33 27 63 61 30 34 66 75 82 92
15 17 27 34 27 38 0 13 -122 94 -175 116 -27 12 -66 24 -86 28 -36 7 -157 14
-161 10z"/>
<path d="M394 4365 c-4 -11 -98 -323 -120 -397 -25 -85 -42 -142 -64 -213 -12
-38 -27 -90 -35 -115 -7 -25 -40 -136 -74 -247 -33 -111 -61 -206 -61 -212 0
-7 53 -11 160 -11 l159 0 10 38 c5 20 17 73 26 117 10 44 22 85 27 90 5 6 75
10 167 10 l159 1 28 -121 c16 -66 27 -123 26 -127 -1 -5 75 -8 168 -8 94 0
170 4 170 8 0 4 -18 68 -41 142 -38 128 -169 564 -225 750 -14 47 -29 96 -34
110 -5 14 -20 63 -34 110 l-25 85 -192 0 c-119 0 -193 -4 -195 -10z m219 -352
c15 -65 38 -167 52 -227 14 -60 25 -110 25 -112 0 -2 -48 -4 -106 -4 l-106 0
6 33 c4 17 10 43 12 57 3 14 9 41 14 60 5 19 11 46 14 60 29 151 52 250 57
250 3 0 18 -53 32 -117z"/>
<path d="M2629 4372 c-9 -2 -38 -84 -83 -235 -38 -128 -79 -263 -92 -302 -12
-38 -47 -155 -78 -260 -31 -104 -67 -226 -81 -270 -13 -44 -27 -92 -31 -107
l-6 -28 160 0 c144 0 161 2 166 18 3 9 15 60 26 112 12 52 23 102 26 110 3 13
31 15 168 16 l164 1 22 -96 c12 -53 25 -109 29 -126 l7 -30 167 -3 c92 -1 167
1 167 6 0 4 -68 233 -151 507 -83 275 -162 541 -176 590 -14 50 -28 92 -29 94
-4 5 -353 8 -375 3z m228 -457 c19 -82 36 -161 39 -175 2 -14 6 -35 9 -47 5
-23 4 -23 -100 -23 -58 0 -105 4 -105 8 0 5 11 60 25 123 14 63 28 125 31 139
3 14 6 30 8 35 1 6 8 37 15 70 7 33 15 67 18 75 7 18 13 -3 60 -205z"/>
<path d="M3487 4372 c-16 -3 -17 -50 -17 -603 l0 -599 160 0 160 0 2 201 3
201 47 3 c26 1 51 -1 56 -4 11 -7 58 -94 146 -268 l67 -133 176 0 c157 0 175
2 169 16 -3 9 -61 113 -127 232 l-121 216 28 20 c115 83 168 196 163 345 -2
42 -10 97 -18 123 -18 59 -74 133 -126 170 -46 32 -144 65 -219 74 -53 7 -520
11 -549 6z m540 -275 c68 -36 83 -136 32 -207 -34 -47 -72 -60 -180 -63 l-84
-2 -3 149 -3 148 103 -4 c71 -3 113 -9 135 -21z"/>
<path d="M4597 4372 c-16 -3 -17 -50 -16 -603 l0 -599 160 0 159 0 0 200 c0
223 -8 202 75 204 l39 1 103 -200 102 -200 175 -3 c97 -1 176 1 176 4 0 6 -33
66 -143 264 -11 19 -39 70 -63 112 -24 43 -44 79 -44 81 0 1 22 20 49 40 90
69 141 181 141 312 0 208 -116 339 -330 375 -67 11 -537 21 -583 12z m539
-275 c49 -25 59 -44 59 -113 0 -111 -52 -152 -203 -157 l-92 -4 0 147 c0 81 2
149 4 151 11 11 204 -9 232 -24z"/>
<path d="M5744 4371 c-2 -2 -4 -274 -4 -603 l0 -598 418 0 419 0 -1 133 -1
132 -253 1 c-139 1 -254 3 -256 5 -6 6 -8 47 -7 131 l1 78 212 2 212 3 1 120
c1 66 -1 125 -3 132 -2 8 -56 11 -190 11 -103 0 -197 1 -209 1 -22 1 -23 4
-23 94 l0 93 238 -1 c130 0 242 1 249 3 15 5 15 262 -1 263 -40 3 -798 3 -802
0z"/>
<path d="M7061 4365 c-5 -5 -15 -32 -24 -60 -38 -122 -330 -1092 -335 -1112
l-4 -23 160 0 c144 0 161 2 166 18 3 9 15 60 26 112 12 52 23 102 26 110 3 13
31 15 168 16 l164 1 22 -96 c12 -53 26 -111 31 -128 l11 -33 165 0 165 0 -6
28 c-4 15 -16 56 -27 92 -11 36 -89 294 -173 574 l-153 510 -187 0 c-114 1
-191 -3 -195 -9z m189 -238 c0 -1 16 -75 36 -162 19 -88 37 -171 40 -185 3
-14 9 -41 14 -60 6 -19 10 -38 10 -42 0 -5 -47 -8 -105 -8 -58 0 -105 4 -105
9 0 5 13 68 30 141 16 73 32 142 34 154 3 11 10 46 17 76 7 30 12 61 12 68 0
6 4 12 9 12 4 0 8 -1 8 -3z"/>
<path d="M7938 4372 c-13 -2 -15 -76 -15 -602 l0 -600 159 0 158 0 1 33 c0 17
0 103 0 190 l0 157 87 1 c115 1 154 6 233 29 193 57 302 211 293 412 -4 88
-19 142 -54 198 -65 101 -169 160 -315 177 -52 6 -520 10 -547 5z m537 -273
c80 -40 95 -166 27 -244 -32 -37 -65 -47 -168 -50 l-91 -4 -1 159 c-1 140 1
159 16 162 34 7 190 -10 217 -23z"/>
<path d="M9049 4372 c-14 -2 -15 -78 -15 -602 l0 -600 158 0 158 0 0 189 0
188 118 6 c163 8 209 18 302 69 154 84 224 259 184 456 -33 161 -158 263 -351
288 -55 7 -523 12 -554 6z m556 -287 c69 -52 66 -185 -4 -243 -32 -25 -68 -34
-158 -37 l-93 -3 0 158 c0 184 -12 169 128 158 79 -5 98 -10 127 -33z"/>
<path d="M3213 2848 c-40 -10 -43 -16 -45 -73 0 -37 -4 -45 -19 -45 -11 0 -19
-7 -19 -15 0 -9 9 -15 23 -15 22 0 23 -2 22 -120 0 -108 1 -120 17 -120 20 0
20 7 18 158 l-1 82 34 0 c28 0 35 4 33 17 -2 13 -12 17 -34 17 -18 -1 -32 1
-33 5 -9 67 -1 81 47 81 24 0 34 5 34 15 0 8 -3 15 -7 16 -5 0 -15 2 -23 3 -8
2 -29 -1 -47 -6z"/>
<path d="M3358 2843 c-11 -21 -1 -38 22 -38 33 0 36 38 3 43 -11 2 -23 0 -25
-5z"/>
<path d="M3784 2835 c-8 -19 3 -35 26 -35 19 0 30 17 23 38 -6 17 -42 15 -49
-3z"/>
<path d="M6250 2786 l0 -64 -32 8 c-34 10 -67 8 -105 -4 -28 -9 -45 -67 -42
-145 4 -109 46 -143 138 -112 41 14 51 15 51 4 0 -15 27 -18 32 -3 2 5 2 93 0
195 -3 176 -4 185 -22 185 -18 0 -20 -7 -20 -64z m-5 -98 c2 -2 5 -38 7 -81 3
-90 -7 -106 -69 -114 -54 -7 -73 19 -73 99 0 72 13 105 42 110 22 3 85 -6 93
-14z"/>
<path d="M32 2793 c2 -12 15 -16 48 -17 l45 -1 2 -122 c2 -205 1 -193 21 -193
17 0 18 12 18 158 l0 157 47 0 c38 0 47 3 47 17 0 16 -12 18 -116 18 -102 0
-115 -2 -112 -17z"/>
<path d="M5322 2748 c-6 -35 -14 -83 -17 -108 -3 -25 -10 -69 -15 -99 -13 -72
-13 -81 4 -81 20 0 24 8 32 66 3 27 7 51 9 54 2 3 6 32 10 65 3 33 8 69 10 80
2 11 4 27 5 35 2 15 27 -56 75 -212 23 -77 30 -88 50 -88 19 0 25 9 40 63 10
34 20 67 21 72 1 6 13 48 27 95 27 91 28 90 43 -25 3 -27 8 -59 10 -70 2 -11
7 -42 10 -70 7 -59 10 -65 31 -65 12 0 14 9 9 48 -6 54 -36 250 -41 272 -2 8
-4 18 -4 23 -1 4 -14 7 -30 7 -27 0 -29 -3 -65 -127 -58 -198 -52 -181 -59
-158 -79 274 -84 285 -117 285 -26 0 -29 -3 -38 -62z"/>
<path d="M2229 2788 c-1 -4 -2 -18 -3 -30 0 -13 -9 -24 -18 -26 -23 -4 -23
-29 -2 -34 14 -3 17 -18 16 -101 -1 -90 0 -100 21 -121 20 -20 30 -22 63 -17
26 4 40 12 42 24 3 16 -1 17 -33 11 -50 -9 -55 1 -55 114 l0 92 40 0 c29 0 40
4 40 15 0 15 -15 19 -57 15 -20 -1 -23 3 -23 33 0 23 -5 34 -15 34 -8 0 -16
-4 -16 -9z"/>
<path d="M4566 2793 c-3 -4 -6 -19 -6 -34 0 -21 -5 -28 -22 -31 -22 -3 -22 -3
-2 -22 15 -16 19 -34 20 -90 2 -151 17 -171 112 -151 12 3 22 12 22 20 0 12
-8 14 -39 9 -26 -4 -41 -2 -46 6 -4 7 -9 55 -10 106 l-1 94 37 0 c35 0 58 14
45 27 -3 3 -22 6 -43 7 -35 1 -38 4 -36 28 2 25 -18 44 -31 31z"/>
<path d="M317 2732 c-2 -4 -3 -65 -2 -137 0 -121 2 -130 20 -130 17 0 19 8 19
103 1 91 3 105 20 118 11 8 30 14 43 14 17 0 23 6 23 21 0 18 -4 20 -27 14
-16 -3 -36 -14 -45 -22 -16 -14 -18 -14 -18 -1 0 16 -27 33 -33 20z"/>
<path d="M552 2731 c-13 -3 -23 -9 -23 -13 1 -5 1 -13 1 -18 0 -6 11 -8 27 -4
77 20 123 0 123 -53 0 -22 -2 -23 -67 -18 -90 7 -108 -6 -108 -79 0 -30 6 -60
14 -69 17 -22 91 -23 131 -2 25 13 29 13 34 0 3 -8 12 -15 21 -15 14 0 15 16
13 115 -3 102 -5 117 -25 136 -23 23 -92 33 -141 20z m111 -141 c13 0 17 -8
17 -35 0 -28 -5 -37 -30 -50 -35 -18 -81 -20 -98 -3 -18 18 -15 75 6 87 9 6
33 9 52 6 19 -2 43 -4 53 -5z"/>
<path d="M827 2732 c-3 -4 -5 -67 -5 -139 -1 -126 0 -133 18 -133 19 0 20 7
20 109 0 61 4 113 10 116 5 3 32 8 58 12 36 4 52 2 58 -8 4 -7 8 -61 9 -119 0
-91 3 -105 18 -108 19 -4 18 -8 21 118 2 101 -8 138 -41 151 -25 9 -87 3 -115
-12 -11 -6 -18 -6 -18 0 0 11 -28 23 -33 13z"/>
<path d="M1160 2728 c-20 -7 -35 -46 -32 -83 2 -29 36 -53 88 -61 31 -4 48
-13 56 -28 6 -11 10 -23 9 -26 -2 -3 -7 -13 -13 -24 -8 -16 -17 -18 -57 -12
-25 3 -55 7 -66 8 -12 2 -20 -3 -20 -12 0 -19 81 -38 124 -29 48 11 65 32 64
80 -1 50 -16 67 -67 73 -74 10 -83 18 -76 66 4 30 22 32 101 15 18 -4 28 -1
32 9 11 27 -90 43 -143 24z"/>
<path d="M1415 2732 c-14 -9 -15 -364 -1 -374 20 -13 31 11 30 62 l-2 51 47
-7 c25 -4 48 -8 50 -10 7 -7 61 27 70 44 9 17 14 78 12 153 -2 72 -63 105
-137 74 -32 -13 -38 -13 -48 0 -6 8 -16 11 -21 7z m155 -47 c13 -16 18 -115 7
-157 -9 -33 -41 -44 -94 -31 l-38 9 0 84 c0 80 1 85 25 97 34 17 85 16 100 -2z"/>
<path d="M1773 2729 c-47 -14 -60 -39 -62 -124 -3 -119 19 -145 122 -145 59 0
96 31 99 82 2 56 0 120 -6 144 -11 42 -86 63 -153 43z m105 -43 c15 -15 22
-110 11 -150 -11 -36 -24 -46 -68 -46 -56 0 -71 22 -71 104 0 39 4 76 8 83 20
31 90 36 120 9z"/>
<path d="M2043 2733 c-10 -4 -13 -41 -13 -140 0 -123 2 -134 18 -131 15 3 17
16 18 106 0 59 5 107 11 113 6 6 26 14 45 18 19 4 33 13 33 21 0 19 -33 21
-62 3 -28 -16 -31 -16 -35 0 -2 8 -9 12 -15 10z"/>
<path d="M2464 2725 c-24 -10 -33 -22 -44 -59 -14 -52 -9 -142 11 -174 18 -28
80 -41 144 -29 58 10 57 10 49 30 -4 12 -11 14 -31 6 -35 -13 -96 -11 -116 4
-10 6 -20 28 -23 47 l-6 36 74 -3 c109 -3 116 -1 112 44 -7 64 -13 82 -35 93
-31 17 -100 20 -135 5z m114 -38 c7 -8 15 -27 17 -43 l3 -29 -74 -1 c-64 0
-74 2 -74 17 0 29 21 68 39 72 28 6 75 -3 89 -16z"/>
<path d="M2890 2724 c-35 -15 -52 -64 -49 -141 4 -102 29 -128 121 -124 62 2
99 16 92 35 -4 11 -13 12 -37 5 -80 -23 -137 2 -137 59 l0 28 88 0 87 -1 3 44
c2 25 -2 55 -9 68 -21 40 -97 53 -159 27z m118 -36 c7 -6 12 -25 10 -42 l-3
-31 -67 0 c-66 -1 -68 0 -68 25 0 14 4 30 8 37 19 30 89 36 120 11z"/>
<path d="M3365 2730 c-3 -5 -4 -67 -3 -140 1 -113 4 -130 17 -128 14 3 16 24
18 135 1 104 -2 133 -12 137 -8 3 -17 1 -20 -4z"/>
<path d="M3553 2724 c-43 -22 -57 -60 -51 -145 7 -90 31 -119 99 -121 57 -1
89 9 89 28 0 11 -11 13 -54 8 -46 -6 -56 -4 -75 15 -28 28 -30 137 -3 171 18
23 67 29 111 15 17 -5 21 -2 21 14 0 12 -6 21 -12 22 -7 0 -31 2 -53 5 -25 3
-52 -2 -72 -12z"/>
<path d="M3796 2733 c-3 -4 -6 -67 -6 -140 0 -123 2 -134 18 -131 15 3 17 18
19 135 1 102 -1 132 -12 136 -7 3 -16 3 -19 0z"/>
<path d="M3983 2725 c-16 -7 -34 -24 -41 -39 -15 -33 -16 -132 -1 -174 16 -46
78 -64 167 -48 33 6 42 12 38 23 -3 8 -6 16 -6 18 0 2 -15 -1 -32 -6 -81 -23
-138 1 -138 59 l0 29 90 -3 90 -2 0 52 c0 57 -23 94 -60 98 -61 5 -81 4 -107
-7z m115 -38 c6 -5 12 -24 12 -41 l0 -32 -70 0 c-68 0 -70 1 -70 26 0 33 10
47 40 59 27 10 67 5 88 -12z"/>
<path d="M4257 2734 c-4 -4 -7 -68 -7 -141 0 -123 2 -134 18 -131 15 3 17 17
18 106 0 59 5 107 11 113 18 18 104 24 114 8 5 -8 9 -62 9 -121 0 -101 1 -108
20 -108 19 0 20 7 20 114 0 95 -3 118 -18 136 -23 28 -73 34 -119 15 -32 -14
-37 -13 -47 1 -6 8 -15 12 -19 8z"/>
<path d="M4802 2725 c-40 -18 -55 -52 -54 -130 1 -78 15 -113 49 -126 36 -14
110 -13 147 1 23 8 26 13 16 25 -8 9 -18 12 -29 7 -9 -5 -34 -10 -57 -11 -49
-3 -81 21 -86 64 l-3 30 80 1 c111 1 105 -2 105 48 0 62 -30 95 -90 101 -26 2
-59 -2 -78 -10z m116 -38 c6 -5 12 -24 12 -41 l0 -32 -70 0 c-69 0 -70 0 -70
26 0 14 6 33 13 42 19 26 84 29 115 5z"/>
<path d="M5943 2728 c-4 -7 -8 -58 -8 -113 l0 -100 -40 -13 c-50 -16 -81 -9
-87 21 -2 13 -4 64 -4 115 1 86 0 92 -19 92 -19 0 -20 -5 -19 -102 3 -140 2
-135 20 -153 20 -20 98 -18 132 3 20 13 22 12 22 -3 0 -10 6 -15 17 -13 16 3
18 16 16 118 -2 161 -2 160 -12 160 -6 0 -13 -6 -18 -12z"/>
<path d="M6432 2731 c-13 -3 -23 -9 -23 -13 1 -5 1 -13 1 -19 0 -6 9 -8 20 -4
11 3 39 7 62 7 47 0 68 -19 68 -63 0 -27 -1 -27 -37 -17 -49 13 -111 4 -128
-19 -22 -28 -19 -99 5 -123 24 -24 92 -27 130 -5 32 18 40 18 40 0 0 -8 7 -15
15 -15 13 0 15 18 14 111 -2 98 -4 114 -23 136 -17 19 -33 25 -71 28 -28 1
-60 -1 -73 -4z m106 -140 c21 -1 23 -5 20 -38 -3 -34 -7 -39 -44 -52 -23 -8
-52 -11 -67 -7 -23 5 -27 12 -27 44 0 48 13 61 59 57 20 -2 46 -3 59 -4z"/>
<path d="M6795 2732 c-11 -2 -26 -9 -34 -16 -11 -8 -15 -8 -18 2 -3 6 -13 12
-24 12 -18 0 -19 -9 -19 -135 0 -128 1 -135 20 -135 19 0 20 7 20 109 0 122
-1 119 76 128 27 3 44 0 49 -8 5 -7 9 -60 9 -118 1 -97 3 -106 20 -106 17 0
19 8 18 83 -1 140 -2 148 -15 166 -13 18 -64 27 -102 18z"/>
<path d="M7002 2732 c-48 -7 -14 -27 51 -30 37 -2 67 -5 67 -7 0 -2 -29 -48
-65 -102 -88 -133 -88 -134 27 -131 74 2 93 6 96 18 2 13 -9 15 -68 14 -38 -2
-70 0 -70 3 0 4 29 52 65 108 62 98 74 124 58 126 -25 3 -142 3 -161 1z"/>
<path d="M7288 2732 c-20 -2 -28 -9 -28 -24 0 -17 4 -19 28 -13 77 20 117 8
127 -36 9 -38 -1 -52 -25 -39 -33 18 -108 12 -130 -10 -30 -30 -31 -103 -2
-133 24 -23 88 -25 129 -3 22 11 33 12 35 4 2 -6 11 -12 20 -14 14 -2 15 12
13 105 -1 59 -7 117 -14 128 -17 34 -71 46 -153 35z m120 -147 c3 -2 6 -18 8
-35 3 -27 0 -33 -31 -46 -53 -22 -94 -18 -104 9 -10 27 -4 69 12 79 12 7 107
2 115 -7z"/>
<path d="M7589 2727 c-31 -16 -46 -58 -33 -94 9 -28 33 -39 117 -57 23 -6 27
-11 27 -41 0 -29 -4 -36 -27 -41 -15 -4 -47 -2 -72 5 -35 9 -46 9 -52 -1 -20
-31 116 -54 159 -27 35 22 44 95 14 122 -10 9 -38 19 -62 23 -55 8 -70 19 -70
50 0 32 35 45 86 34 41 -9 67 1 48 20 -16 16 -108 20 -135 7z"/>
<path d="M7990 2732 c-31 -10 -50 -36 -50 -69 0 -36 29 -73 58 -73 9 0 34 -5
55 -11 31 -8 37 -14 37 -37 0 -51 -40 -65 -110 -41 -26 9 -34 9 -41 -2 -12
-19 38 -39 99 -41 38 0 50 4 69 26 13 15 23 39 23 54 0 47 -24 68 -90 81 -57
11 -60 13 -60 41 0 39 24 50 80 40 31 -6 47 -5 52 3 12 19 9 27 -9 28 -77 5
-100 5 -113 1z"/>
<path d="M8269 2729 c-40 -15 -54 -52 -54 -142 0 -74 2 -81 28 -103 23 -19 39
-24 85 -24 76 0 104 8 99 29 -2 9 -10 14 -18 12 -8 -2 -36 -6 -64 -8 -61 -6
-83 9 -91 58 l-6 35 91 -2 c50 -1 92 2 92 7 12 96 -13 138 -86 143 -27 2 -62
0 -76 -5z m102 -34 c10 -4 19 -14 20 -23 0 -9 2 -25 4 -34 4 -22 -15 -27 -85
-24 -51 2 -55 4 -56 27 -1 55 46 76 117 54z"/>
<path d="M8552 2715 c-24 -20 -26 -29 -26 -101 0 -44 3 -92 7 -107 10 -38 57
-58 106 -45 64 16 66 16 62 -17 -1 -16 -5 -34 -8 -38 -11 -17 -51 -25 -94 -17
-43 8 -69 -4 -50 -23 14 -14 115 -15 143 -1 44 23 49 45 51 203 1 151 -4 181
-28 161 -9 -7 -27 -8 -56 -1 -62 13 -78 11 -107 -14z m148 -35 c5 -8 6 -113 1
-156 -1 -14 -45 -34 -75 -34 -43 0 -59 23 -62 86 -3 80 5 114 29 123 23 9 98
-5 107 -19z"/>
<path d="M8845 2730 c-3 -5 -5 -61 -4 -124 1 -97 4 -117 20 -131 22 -21 78
-22 118 -2 25 13 31 13 35 1 3 -8 12 -14 20 -14 13 0 15 21 15 133 -1 72 -3
135 -5 139 -3 4 -11 5 -19 1 -12 -4 -15 -27 -15 -109 0 -114 -4 -121 -75 -131
-49 -7 -57 12 -56 131 1 83 -2 105 -14 109 -8 4 -17 2 -20 -3z"/>
<path d="M9158 2732 c0 -4 -2 -67 -3 -139 -1 -123 0 -133 17 -133 16 0 18 10
18 103 0 115 10 137 63 137 29 0 38 26 13 36 -16 6 -56 -12 -68 -30 -5 -7 -8
-5 -8 5 0 17 -28 35 -32 21z"/>
<path d="M9390 2730 c-30 -7 -34 -36 -5 -32 11 1 31 3 45 5 38 5 77 -12 84
-36 12 -46 9 -49 -49 -42 -95 12 -130 -10 -127 -84 2 -57 25 -81 78 -81 25 0
58 7 74 15 25 13 29 13 34 0 3 -8 12 -15 20 -15 12 0 14 19 13 108 -2 115 -18
161 -55 163 -66 5 -90 5 -112 -1z m121 -145 c5 -4 9 -20 9 -36 0 -25 -6 -33
-36 -45 -20 -8 -50 -14 -67 -12 -27 2 -33 8 -37 33 -8 40 -1 63 19 68 19 6 99
0 112 -8z"/>
<path d="M9693 2730 c-29 -12 -45 -43 -39 -77 2 -16 5 -31 5 -34 2 -11 79 -39
107 -39 16 0 27 -7 33 -22 20 -55 -20 -80 -97 -59 -48 12 -58 10 -49 -12 14
-36 147 -37 174 -1 18 24 17 89 -2 107 -8 9 -34 18 -57 22 -60 10 -78 22 -78
51 0 32 34 46 86 33 22 -4 42 -9 47 -9 10 0 9 28 -2 34 -16 11 -106 14 -128 6z"/>
<path d="M5057 2513 c-4 -3 -7 -17 -7 -30 0 -18 5 -23 25 -23 20 0 25 5 25 24
0 13 -7 27 -16 30 -19 7 -19 7 -27 -1z"/>
<path d="M9915 2499 c-8 -25 1 -39 26 -39 23 0 36 27 20 43 -18 18 -40 16 -46
-4z"/>
</g>
</svg>
